<svg width="34" height="27" viewBox="0 0 34 27" fill="none" xmlns="http://www.w3.org/2000/svg">
<path d="M27 5V13" stroke="white" stroke-width="7" stroke-linecap="round"/>
<path d="M8 5V13" stroke="white" stroke-width="7" stroke-linecap="round"/>
<path d="M2 2.0312C2.99377 1.90698 3.95065 2.18169 4.94823 2.36307C6.23625 2.59726 7.52636 2.88575 8.71454 3.46287C9.24712 3.72155 9.68804 4.06774 10.1501 4.43146C10.3075 4.5554 10.5118 4.66311 10.6131 4.84051C10.7027 4.99726 10.8787 5.35916 11.0299 5.43478" stroke="white" stroke-width="3" stroke-linecap="round"/>
<path d="M32.0299 2.0312C31.0361 1.90698 30.0793 2.18169 29.0817 2.36307C27.7937 2.59726 26.5035 2.88575 25.3154 3.46287C24.7828 3.72155 24.3419 4.06774 23.8798 4.43146C23.7224 4.5554 23.5181 4.66311 23.4168 4.84051C23.3272 4.99726 23.1512 5.35916 23 5.43478" stroke="white" stroke-width="3" stroke-linecap="round"/>
<path d="M12 24.9014C13.1739 23.4723 15.4436 23.0213 17.1881 23.0014C18.3819 22.9878 19.4486 23.0622 20.5466 23.5772C21.1967 23.8821 21.8369 24.2539 22.421 24.6711" stroke="white" stroke-width="3" stroke-linecap="round"/>
</svg>
