<svg width="35" height="32" viewBox="0 0 35 32" fill="none" xmlns="http://www.w3.org/2000/svg">
<path d="M28 11V19" stroke="white" stroke-width="7" stroke-linecap="round"/>
<path d="M9 11V19" stroke="white" stroke-width="7" stroke-linecap="round"/>
<path d="M2 6.28179C2.37559 6.28179 2.74769 6.16119 3.11504 6.09399C4.11168 5.91168 5.10848 5.51463 6.02588 5.09046C7.04865 4.61756 8.02836 3.61946 8.39093 2.53174" stroke="white" stroke-width="3" stroke-linecap="round"/>
<path d="M33.1262 5.75005C32.7506 5.75005 32.3785 5.62945 32.0112 5.56226C31.0145 5.37994 30.0177 4.9829 29.1003 4.55872C28.0776 4.08583 27.0979 3.08772 26.7353 2" stroke="white" stroke-width="3" stroke-linecap="round"/>
<path d="M14 30.0567C14.0162 29.7818 14.5028 29.6122 14.7042 29.5236C15.4601 29.1907 16.2288 29.0537 17.0532 29.0256C18.2181 28.9859 19.401 28.9886 20.5642 29.0608C21.0208 29.0891 21.4687 29.1484 21.9173 29.2368C22.0339 29.2598 22.1422 29.2678 22.2392 29.3324" stroke="white" stroke-width="3" stroke-linecap="round"/>
</svg>
