<svg width="30" height="29" viewBox="0 0 30 29" fill="none" xmlns="http://www.w3.org/2000/svg">
<path d="M26.6513 2.11652C24.1539 4.78164 21.5964 7.38226 18.8961 9.84427C18.5435 10.1658 19.0063 10.2311 19.2933 10.3168C19.9774 10.521 20.6299 10.8137 21.31 11.0324C22.6398 11.46 23.9924 11.8738 25.357 12.1759C25.9065 12.2976 26.4913 12.2938 27.0211 12.4704" stroke="white" stroke-width="4" stroke-linecap="round"/>
<path d="M2.36978 2C4.86716 4.66512 7.42465 7.26574 10.1249 9.72775C10.4776 10.0493 10.0148 10.1146 9.72775 10.2003C9.04361 10.4045 8.39116 10.6972 7.71107 10.9158C6.38122 11.3435 5.02871 11.7573 3.66401 12.0594C3.11454 12.1811 2.52977 12.1773 1.99999 12.3539" stroke="white" stroke-width="4" stroke-linecap="round"/>
<path d="M7 26.2531C9.60762 23.1761 13.7865 22.5592 17.6448 23.2625C19.2936 23.5631 20.8998 23.9788 22.2256 25.0545C22.4776 25.259 22.6537 25.6958 22.9139 25.8258" stroke="white" stroke-width="4" stroke-linecap="round"/>
</svg>
