<svg width="27" height="30" viewBox="0 0 27 30" fill="none" xmlns="http://www.w3.org/2000/svg">
<path d="M23 4V12" stroke="white" stroke-width="7" stroke-linecap="round"/>
<path d="M4 4V12" stroke="white" stroke-width="7" stroke-linecap="round"/>
<path d="M4.40479 22.4327C4.42167 23.0407 4.95413 23.4697 5.36208 23.861C5.90714 24.3838 6.50147 24.8503 7.08388 25.3287C7.70813 25.8415 8.39575 26.241 9.11895 26.5949C9.55594 26.8087 10.0149 26.9403 10.4859 27.0549C10.9534 27.1686 11.4092 27.3433 11.8879 27.401C12.3248 27.4537 12.7604 27.5283 13.1978 27.5741C13.8075 27.6379 14.416 27.5783 15.0204 27.4974C15.7481 27.3999 16.4764 27.3182 17.1803 27.1031C18.0424 26.8397 18.8142 26.3615 19.5068 25.7887C20.3087 25.1255 20.9234 24.367 21.4827 23.5018C21.7086 23.1521 21.8459 22.7228 22.0303 22.3539" stroke="white" stroke-width="3" stroke-linecap="round"/>
</svg>
