<svg width="28" height="22" viewBox="0 0 28 22" fill="none" xmlns="http://www.w3.org/2000/svg">
<path d="M3 16.4407C3.09483 16.8548 4.03464 17.2833 4.36799 17.5277C4.90503 17.9213 5.45458 18.3209 6.07237 18.6049C7.60843 19.311 9.11587 19.6758 10.8491 19.8388C12.778 20.0202 14.784 20.0516 16.7192 19.9172C18.1481 19.8179 19.8092 19.6246 21.1035 19.0456C22.1804 18.5638 23.0175 17.7821 23.8899 17.0625C24.2332 16.7794 25 16.4801 25 16" stroke="white" stroke-width="4" stroke-linecap="round"/>
<path d="M2 2.40559C2.8984 3.72677 4.46257 4.07848 5.95451 4.20821C7.67642 4.35795 8.56455 3.39579 9.40203 2" stroke="white" stroke-width="4" stroke-linecap="round"/>
<path d="M25.3426 2.589C24.4442 3.91018 22.88 4.26189 21.3881 4.39163C19.6662 4.54136 18.778 3.5792 17.9406 2.18341" stroke="white" stroke-width="4" stroke-linecap="round"/>
</svg>
